<svg xmlns="http://www.w3.org/2000/svg" width="25" height="30" fill="none"><path fill="#000" d="M25 24.824c0 1.42-.407 2.637-1.22 3.653C22.964 29.492 21.985 30 20.84 30H4.16c-1.146 0-2.125-.508-2.94-1.523C.408 27.46 0 26.244 0 24.824c0-1.107.055-2.152.166-3.135.11-.983.316-1.972.615-2.968.3-.996.68-1.85 1.143-2.559a5.468 5.468 0 0 1 1.836-1.738c.761-.45 1.637-.674 2.627-.674 1.705 1.667 3.743 2.5 6.113 2.5 2.37 0 4.408-.833 6.113-2.5.99 0 1.866.225 2.627.674a5.468 5.468 0 0 1 1.836 1.738c.462.71.843 1.563 1.143 2.559.3.996.504 1.985.615 2.968.11.983.166 2.028.166 3.135ZM20 7.5c0 2.07-.732 3.838-2.197 5.303C16.338 14.268 14.57 15 12.5 15s-3.838-.732-5.303-2.197C5.732 11.338 5 9.57 5 7.5s.732-3.838 2.197-5.303C8.662.732 10.43 0 12.5 0s3.838.732 5.303 2.197C19.268 3.662 20 5.43 20 7.5Z"/></svg>